name Run_200 02_newCOP3_v24.mot
datacolumns 19
datarows 22
range 1.39200000 1.41300000
endheader
                time	   R_ground_force_vx	   R_ground_force_vy	   R_ground_force_vz	   R_ground_force_px	   R_ground_force_py	   R_ground_force_pz	   L_ground_force_vx	   L_ground_force_vy	   L_ground_force_vz	   L_ground_force_px	   L_ground_force_py	   L_ground_force_pz	   R_ground_torque_x	   R_ground_torque_y	   R_ground_torque_z	   L_ground_torque_x	   L_ground_torque_y	   L_ground_torque_z	
          1.39200000	         84.70832100	        566.91088900	         20.46250500	          0.71292000	          0.00000000	         -0.25108300	          0.00000000	          0.00000000	          0.00000000	          0.00000000	          0.00000000	          0.00000000	         -0.00000000	          2.51620500	         -0.00000000	          0.00000000	          0.00000000	          0.00000000	
          1.39300000	         84.47116100	        558.37603800	         20.95738400	          0.71127100	          0.00000000	         -0.25104500	          0.00000000	          0.00000000	          0.00000000	          0.00000000	          0.00000000	          0.00000000	         -0.00000000	          2.48677300	         -0.00000000	          0.00000000	          0.00000000	          0.00000000	
          1.39400000	         84.18381500	        549.78527800	         21.42631700	          0.70962400	          0.00000000	         -0.25099800	          0.00000000	          0.00000000	          0.00000000	          0.00000000	          0.00000000	          0.00000000	         -0.00000000	          2.45518700	         -0.00000000	          0.00000000	          0.00000000	          0.00000000	
          1.39500000	         83.84532900	        541.14007600	         21.87080200	          0.70797700	          0.00000000	         -0.25094400	          0.00000000	          0.00000000	          0.00000000	          0.00000000	          0.00000000	          0.00000000	         -0.00000000	          2.42171100	         -0.00000000	          0.00000000	          0.00000000	          0.00000000	
          1.39600000	         83.45496400	        532.44232200	         22.29219100	          0.70632900	          0.00000000	         -0.25088200	          0.00000000	          0.00000000	          0.00000000	          0.00000000	          0.00000000	          0.00000000	         -0.00000000	          2.38663500	         -0.00000000	          0.00000000	          0.00000000	          0.00000000	
          1.39700000	         83.01220700	        523.69439700	         22.69158900	          0.70468200	          0.00000000	         -0.25081100	          0.00000000	          0.00000000	          0.00000000	          0.00000000	          0.00000000	          0.00000000	         -0.00000000	          2.35026700	         -0.00000000	          0.00000000	          0.00000000	          0.00000000	
          1.39800000	         82.51675400	        514.89923100	         23.06975900	          0.70303300	          0.00000000	         -0.25073300	          0.00000000	          0.00000000	          0.00000000	          0.00000000	          0.00000000	          0.00000000	         -0.00000000	          2.31293900	         -0.00000000	          0.00000000	          0.00000000	          0.00000000	
          1.39900000	         81.96852100	        506.06015000	         23.42703200	          0.70138300	          0.00000000	         -0.25064600	          0.00000000	          0.00000000	          0.00000000	          0.00000000	          0.00000000	          0.00000000	         -0.00000000	          2.27500100	         -0.00000000	          0.00000000	          0.00000000	          0.00000000	
          1.40000000	         81.36760700	        497.18118300	         23.76322900	          0.69973100	          0.00000000	         -0.25055200	          0.00000000	          0.00000000	          0.00000000	          0.00000000	          0.00000000	          0.00000000	         -0.00000000	          2.23682200	         -0.00000000	          0.00000000	          0.00000000	          0.00000000	
          1.40100000	         80.71432500	        488.26690700	         24.07761400	          0.69807600	          0.00000000	         -0.25045000	          0.00000000	          0.00000000	          0.00000000	          0.00000000	          0.00000000	          0.00000000	         -0.00000000	          2.19878400	         -0.00000000	          0.00000000	          0.00000000	          0.00000000	
          1.40200000	         80.00915500	        479.32247900	         24.36886600	          0.69641800	          0.00000000	         -0.25034200	          0.00000000	          0.00000000	          0.00000000	          0.00000000	          0.00000000	          0.00000000	         -0.00000000	          2.16128400	         -0.00000000	          0.00000000	          0.00000000	          0.00000000	
          1.40300000	         79.25280000	        470.35369900	         24.63507700	          0.69475700	          0.00000000	         -0.25022600	          0.00000000	          0.00000000	          0.00000000	          0.00000000	          0.00000000	          0.00000000	         -0.00000000	          2.12472600	         -0.00000000	          0.00000000	          0.00000000	          0.00000000	
          1.40400000	         78.44614400	        461.36691300	         24.87378100	          0.69309300	          0.00000000	         -0.25010300	          0.00000000	          0.00000000	          0.00000000	          0.00000000	          0.00000000	          0.00000000	         -0.00000000	          2.08952400	         -0.00000000	          0.00000000	          0.00000000	          0.00000000	
          1.40500000	         77.59035500	        452.36898800	         25.08201400	          0.69142400	          0.00000000	         -0.24997400	          0.00000000	          0.00000000	          0.00000000	          0.00000000	          0.00000000	          0.00000000	         -0.00000000	          2.05609400	         -0.00000000	          0.00000000	          0.00000000	          0.00000000	
          1.40600000	         76.68684400	        443.36740100	         25.25640500	          0.68975300	          0.00000000	         -0.24983900	          0.00000000	          0.00000000	          0.00000000	          0.00000000	          0.00000000	          0.00000000	         -0.00000000	          2.02485400	         -0.00000000	          0.00000000	          0.00000000	          0.00000000	
          1.40700000	         75.73735800	        434.36999500	         25.39327800	          0.68807700	          0.00000000	         -0.24969900	          0.00000000	          0.00000000	          0.00000000	          0.00000000	          0.00000000	          0.00000000	         -0.00000000	          1.99621900	         -0.00000000	          0.00000000	          0.00000000	          0.00000000	
          1.40800000	         74.74401900	        425.38507100	         25.48879800	          0.68639800	          0.00000000	         -0.24955300	          0.00000000	          0.00000000	          0.00000000	          0.00000000	          0.00000000	          0.00000000	         -0.00000000	          1.97059600	         -0.00000000	          0.00000000	          0.00000000	          0.00000000	
          1.40900000	         73.70933500	        416.42132600	         25.53910400	          0.68471700	          0.00000000	         -0.24940300	          0.00000000	          0.00000000	          0.00000000	          0.00000000	          0.00000000	          0.00000000	         -0.00000000	          1.94838200	         -0.00000000	          0.00000000	          0.00000000	          0.00000000	
          1.41000000	         72.63626100	        407.48761000	         25.54047600	          0.68303200	          0.00000000	         -0.24925000	          0.00000000	          0.00000000	          0.00000000	          0.00000000	          0.00000000	          0.00000000	         -0.00000000	          1.92996000	         -0.00000000	          0.00000000	          0.00000000	          0.00000000	
          1.41100000	         71.52822900	        398.59314000	         25.48948500	          0.68134600	          0.00000000	         -0.24909300	          0.00000000	          0.00000000	          0.00000000	          0.00000000	          0.00000000	          0.00000000	         -0.00000000	          1.91569300	         -0.00000000	          0.00000000	          0.00000000	          0.00000000	
          1.41200000	         70.38913700	        389.74707000	         25.38315200	          0.67965900	          0.00000000	         -0.24893300	          0.00000000	          0.00000000	          0.00000000	          0.00000000	          0.00000000	          0.00000000	         -0.00000000	          1.90592100	         -0.00000000	          0.00000000	          0.00000000	          0.00000000	
          1.41300000	         69.22336600	        380.95871000	         25.21908200	          0.67797300	          0.00000000	         -0.24877200	          0.00000000	          0.00000000	          0.00000000	          0.00000000	          0.00000000	          0.00000000	         -0.00000000	          1.90095700	         -0.00000000	          0.00000000	          0.00000000	          0.00000000	
